<?xml version="1.0" encoding="iso-8859-1"?>
<!-- Generator: Adobe Illustrator 19.0.0, SVG Export Plug-In . SVG Version: 6.00 Build 0)  -->
<svg version="1.1" id="Layer_1" xmlns="http://www.w3.org/2000/svg" xmlns:xlink="http://www.w3.org/1999/xlink" x="0px" y="0px"
	 viewBox="0 0 512 512" style="enable-background:new 0 0 512 512;" xml:space="preserve">
<g>
	<g>
		<path d="M503.983,461.762h-26.188V230.346c0-2.303-0.991-4.497-2.72-6.018L261.296,36.203c-3.027-2.665-7.565-2.665-10.592,0
			L36.926,224.329c-1.731,1.522-2.721,3.714-2.721,6.018v231.415H8.017c-4.427,0-8.017,3.589-8.017,8.017
			c0,4.427,3.589,8.017,8.017,8.017h495.967c4.427,0,8.017-3.589,8.017-8.017C512,465.351,508.411,461.762,503.983,461.762z
			 M427.557,461.762H264.017v-68.94c0-0.001,0-0.003,0-0.005v-21.501c0-11.563,4.503-22.435,12.679-30.611l13.093-13.093
			c5.403,3.189,11.646,4.764,18.122,4.764c11.407,0,23.529-4.872,32.999-14.342c27.007-27.007,33.918-75.986,34.199-78.057
			c0.336-2.48-0.506-4.976-2.276-6.746c-1.77-1.77-4.268-2.61-6.746-2.276c-2.072,0.281-51.051,7.193-78.057,34.199
			c-14.847,14.847-18.381,36.196-9.576,51.118l-13.095,13.095c-11.205,11.204-17.376,26.102-17.376,41.948v2.15l-15.873-15.873
			c4.894-7.607,7.018-16.912,6.014-26.929c-1.242-12.377-7.161-24.427-16.666-33.932c-32.28-32.28-90.28-39.83-92.733-40.135
			c-2.458-0.308-4.912,0.538-6.659,2.286c-1.748,1.749-2.592,4.206-2.286,6.659c0.306,2.453,7.855,60.453,40.135,92.733
			c9.506,9.506,21.556,15.425,33.932,16.666c1.63,0.164,3.24,0.245,4.828,0.245c8.173,0,15.735-2.154,22.106-6.253l27.203,27.208
			v65.623H84.443V246.626L256,95.655l171.557,150.972V461.762z M330.078,275.986c-3.131-3.131-8.207-3.131-11.337,0l-28.227,28.227
			c-2.591-8.462,0.591-19.46,8.854-27.723c16.029-16.028,42.665-24.045,57.686-27.481c-3.436,15.021-11.453,41.658-27.481,57.686
			c-8.264,8.263-19.26,11.445-27.723,8.855l28.228-28.227C333.208,284.192,333.208,279.116,330.078,275.986z M173.371,321.526
			l35.58,35.58c-3.968,1.716-8.567,2.379-13.505,1.882c-8.706-0.873-17.299-5.153-24.195-12.051
			c-20.616-20.617-30.018-55.053-33.64-72.519c17.451,3.606,51.844,12.983,72.509,33.649c6.898,6.898,11.177,15.49,12.051,24.195
			c0.496,4.938-0.168,9.538-1.882,13.505l-35.58-35.579c-3.131-3.131-8.207-3.131-11.337,0
			C170.241,313.32,170.241,318.397,173.371,321.526z M461.762,461.762h-18.171v-218.76c0-2.303-0.991-4.497-2.72-6.018
			L261.296,78.959c-3.028-2.665-7.564-2.665-10.592,0L71.131,236.984c-1.729,1.522-2.72,3.714-2.72,6.018v218.76H50.238V233.971
			L256,52.901l205.762,181.071V461.762z"/>
	</g>
</g>
<g>
</g>
<g>
</g>
<g>
</g>
<g>
</g>
<g>
</g>
<g>
</g>
<g>
</g>
<g>
</g>
<g>
</g>
<g>
</g>
<g>
</g>
<g>
</g>
<g>
</g>
<g>
</g>
<g>
</g>
</svg>
